<svg width="40" height="40" viewBox="0 0 40 40" fill="none" xmlns="http://www.w3.org/2000/svg">
<g clip-path="url(#clip0_1646_2)">
<path d="M28 0H12C5.37258 0 0 5.37258 0 12V28C0 34.6274 5.37258 40 12 40H28C34.6274 40 40 34.6274 40 28V12C40 5.37258 34.6274 0 28 0Z" fill="url(#paint0_linear_1646_2)"/>
<path d="M26.0425 11.8008L23.8758 10.6638C21.9739 9.66571 21.023 9.16666 20 9.16666C18.977 9.16666 18.0261 9.66571 16.1241 10.6638L13.9575 11.8008C12.0359 12.8092 10.9064 13.402 10.2063 14.1948L20 19.0916L29.7937 14.1948C29.0936 13.402 27.9641 12.8092 26.0425 11.8008Z" fill="white"/>
<path d="M30.5608 15.628L20.8125 20.5021V30.7293C21.5902 30.5356 22.4752 30.0712 23.8758 29.3362L26.0425 28.1992C28.3735 26.9759 29.539 26.3644 30.1861 25.2653C30.8333 24.1663 30.8333 22.7986 30.8333 20.0634V19.9366C30.8333 17.8863 30.8333 16.6044 30.5608 15.628Z" fill="white"/>
<path d="M19.1875 30.7293V20.5021L9.43927 15.628C9.16666 16.6044 9.16666 17.8863 9.16666 19.9366V20.0634C9.16666 22.7986 9.16666 24.1663 9.81384 25.2653C10.461 26.3644 11.6265 26.9759 13.9575 28.1992L16.1241 29.3362C17.5248 30.0712 18.4098 30.5356 19.1875 30.7293Z" fill="white"/>
</g>
<defs>
<linearGradient id="paint0_linear_1646_2" x1="3.65256e-06" y1="-1.06526e-05" x2="40" y2="40" gradientUnits="userSpaceOnUse">
<stop stop-color="#08C8F9"/>
<stop offset="1" stop-color="#1A3EDD"/>
</linearGradient>
<clipPath id="clip0_1646_2">
<rect width="40" height="40" fill="white"/>
</clipPath>
</defs>
</svg>
