<svg width="40" height="40" viewBox="0 0 40 40" fill="none" xmlns="http://www.w3.org/2000/svg">
<g clip-path="url(#clip0_1654_2)">
<path d="M20 40C31.0457 40 40 31.0457 40 20C40 8.9543 31.0457 0 20 0C8.9543 0 0 8.9543 0 20C0 31.0457 8.9543 40 20 40Z" fill="url(#paint0_linear_1654_2)"/>
<path d="M15.3684 16.3043H14C12.8954 16.3043 12 17.1998 12 18.3043V28C12 29.1046 12.8954 30 14 30H26C27.1046 30 28 29.1046 28 28V18.3043C28 17.1998 27.1046 16.3043 26 16.3043H24.6316M15.3684 16.3043V13.6316C15.3684 11.0736 17.4421 9 20 9V9C22.558 9 24.6316 11.0736 24.6316 13.6316V16.3043M15.3684 16.3043H20H24.6316M22 23V23C22 24.1046 21.1046 25 20 25V25C18.8954 25 18 24.1046 18 23V23C18 21.8954 18.8954 21 20 21V21C21.1046 21 22 21.8954 22 23Z" stroke="white" stroke-width="1.5"/>
</g>
<defs>
<linearGradient id="paint0_linear_1654_2" x1="20" y1="0" x2="20" y2="40" gradientUnits="userSpaceOnUse">
<stop stop-color="#00A6FF"/>
<stop offset="1" stop-color="#1A3EDD"/>
</linearGradient>
<clipPath id="clip0_1654_2">
<rect width="40" height="40" fill="white"/>
</clipPath>
</defs>
</svg>
